<svg id="Capa_1" data-name="Capa 1" xmlns="http://www.w3.org/2000/svg" viewBox="0 0 521 436.5"><defs><style>.cls-1{fill:#fff;stroke:#fff;stroke-miterlimit:10;stroke-width:8px;}</style></defs><path class="cls-1" d="M166.87,4h190.2c20.22-.07,38.14,1.45,53.5,16.2,15.6,17.27,23.37,43.92,32.7,65q6.06,13.7,12.15,27.4l1.28,2.88q8.87,20,17.85,39.87,12.93,28.68,25.65,57.45l6.14,13.82,3.83,8.6,1.31,2.91,1.17,2.65c.32.72.64,1.45,1,2.19,3.06,7.91,3.22,14.9,3.22,23.37v48.2q0,11.7.08,23.42,0,10.08,0,20.17v29.39c-.1,12.63-3.75,23.64-12.64,32.81-9.63,9.1-21.67,12.12-34.61,12.13H58.61c-15,.05-27.92-1.16-40.39-10.5C7.26,410.84,3.93,399.32,4,383.93V263.24c.1-9.28,2.07-16.36,5.67-24.88l1.11-2.68c.93-2.18,1.9-4.34,2.89-6.49l1.09-2.41c1.15-2.54,2.31-5.07,3.47-7.61l2.44-5.38q1.81-4,3.64-8,4.77-10.5,9.42-21,6.93-15.64,13.94-31.25,8.86-19.8,17.67-39.65,9.9-22.29,19.87-44.55c.74-1.66,1.49-3.31,2.23-5q5.91-13.17,12-26.25l1.11-2.38c6.32-13.78,16.32-22.06,29.89-28.39C142.32,3.45,154.52,4,166.87,4ZM133.29,30.93,131,32.25c-8.65,7.33-12.69,17.29-17.15,27.44l-2.13,4.73L106.5,76.18c-1.34,3-2.7,6.07-4,9.1q-2.88,6.45-5.73,12.91-5,11.32-10.09,22.62Q75.84,145,65.08,169.26q-6.3,14.16-12.63,28.32l-1,2.11-4.29,9.52-1.46,3.25-1.27,2.8c-.94,1.84-.94,1.84-.87,3.06h434c-5.4-12.59-10.81-25.15-16.46-37.62l-5.86-13-1.2-2.66q-5.79-12.84-11.48-25.74Q432.88,117.45,423,95.66q-5.87-13-11.62-26c-8.24-21.89-8.24-21.89-23.46-38.56l-2.29-1.46c-11.12-4.71-23.75-3.61-35.54-3.58H167.87C149.94,25.37,149.94,25.37,133.29,30.93ZM32.51,246.06l-1.35,1.69-1.4,1.69c-2.69,4.12-3.47,7.74-3.48,12.63v121.7c0,7.85.47,13.2,5.83,19.26l2.57,2.25L36.43,407c8.3,4.85,19.15,3.6,28.44,3.57h394c16.57.41,16.57.41,30.69-7.26,4.11-5.31,5.12-9,5.14-15.63V337.33q0-12.3.08-24.58V266c0-7.93-.92-13.48-6.26-19.67l-1.42-1.35-1.68-1.4c-4.7-3.06-8.73-3.47-14.29-3.48H288.38q-31.58,0-63.16-.05H57.44C44,239.63,44,239.63,32.51,246.06Z"/><path class="cls-1" d="M257.54,286.32c11.14,7,16.67,15.87,19.66,28.54q.78,3.54,1.52,7.08l.79,3.6c3.7,17.14,4.73,31.32-5,46.78a45.87,45.87,0,0,1-28,17c-13.52,1.09-24.8-1.34-35.56-9.8-9.24-8.34-13.85-18-15.32-30.29-.24-7.51,1.3-14.61,2.88-21.91l.54-2.68c3.06-14.91,6.19-28.24,19.46-37.32C230.06,280.35,245.73,279.35,257.54,286.32ZM223,332.75c-4.42,5.92-5.4,11.24-4.5,18.57,2,6.51,5.82,10.69,11.81,14,5.43,2.44,10.44,2.4,16.19,1,5.73-2.87,10.94-7.84,13-14,.66-7.47.68-13-4-19-4.69-4.9-8.94-7.45-15.75-8.38C233.29,325.69,227.45,327.8,223,332.75Z"/><path class="cls-1" d="M127.4,285.06c10.81,6.38,17.64,14.2,21,26.4.83,3.49,1.59,7,2.32,10.48l.79,3.6c3.29,15.23,5.36,29.63-3.22,43.65-7.09,10.15-14.69,14.84-26.13,19.5-13.13,2.27-25.4.53-36.5-7.06-10.58-8.32-16.44-18.7-18.06-32.06-.43-9.15,2-18.37,3.94-27.25l.57-2.73c2.14-9.93,4.33-18.64,11.43-26.27l1.58-1.75C95.87,281.13,114,278.55,127.4,285.06ZM95.1,332.75c-4.5,5.91-5.45,11.21-4.56,18.57,1.83,6.21,5.66,10.45,11,14a23.27,23.27,0,0,0,16.93,1.06c5.3-2.14,8.78-6.54,12.07-11.06a29.2,29.2,0,0,0,.35-17.14,28,28,0,0,0-13.35-12.25C108.76,324.11,101.16,326,95.1,332.75Z"/><path class="cls-1" d="M440.87,305c5.5,3.21,9.56,7.24,11.63,13.32.72,6.72.93,13.31-2.59,19.28a27.12,27.12,0,0,1-12.41,8.72c-7.38.71-13.77.72-20.13-3.37a23.28,23.28,0,0,1-8.11-15c-.2-7.45.68-12.8,5.88-18.34C422.42,303,431.75,300.71,440.87,305Z"/><path class="cls-1" d="M355.87,304.93a25.22,25.22,0,0,1,11.69,14.44c.92,7.17.17,13-4,19-4,4.74-7.71,7.64-14,8.32-6.74.23-12.62.09-18-4.32-6-6.56-7.44-11.78-7.34-20.64a20.36,20.36,0,0,1,5.34-12.36C337,303.25,346.72,300.75,355.87,304.93Z"/></svg>