<svg id="Capa_1" data-name="Capa 1" xmlns="http://www.w3.org/2000/svg" viewBox="0 0 453.56 512.84"><defs><style>.cls-1{fill:#fff;}</style></defs><path class="cls-1" d="M232.28.47c4.58,2.17,7,4.39,9,9a94.17,94.17,0,0,1,.29,11.64v3.41c0,3.59-.05,7.17-.09,10.76,0,2.43,0,4.87,0,7.3q0,8.94-.15,17.89l1.75.15c21.17,1.82,21.17,1.82,30.88,4.1l2.87.65c28.05,6.56,56.24,17.89,79.5,35.1l1.58,1.16A226.11,226.11,0,0,1,377,117.4c2,1.84,4.05,3.58,6.13,5.32,21.08,18.51,37.48,43.41,49.12,68.75l1.61,3.47a236.39,236.39,0,0,1,15.39,49.53l.51,2.43c11.11,56.2-2.84,118.29-34.51,165.57-13.44,19.4-29.21,37.62-48,52l-1.69,1.3a245.16,245.16,0,0,1-28.31,18.7l-1.79,1c-19.53,11.2-41,18.48-63,23.22l-2.1.46c-14.46,2.93-28.75,3.7-43.46,3.66h-2.78c-61.32-.17-117.32-24.94-160.72-67.93a181.21,181.21,0,0,1-15.19-17.44l-1.3-1.7a246.35,246.35,0,0,1-18.7-28.3l-1-1.75C10.45,366.79.39,331.29,0,297.79l0-2.43c-.57-59.5,16.67-116.45,58.05-160.52,1.92-2.05,3.73-4.15,5.53-6.31,23.92-27.31,59.21-47.73,93.69-58.06l2.55-.77a233.69,233.69,0,0,1,51.45-9.23l0-1.9q-.12-9.78-.19-19.56c0-2.43-.05-4.87-.08-7.3,0-3.5-.07-7-.09-10.5l-.06-3.29c0-6.14.3-9.8,4.45-14.45C220.5-.59,225.94-.31,232.28.47Zm9,93v72h67c-6.56-14.48-6.56-14.48-14.5-28l-1.39-2.1a154.19,154.19,0,0,0-13.11-16.9l-2.47-2.76c-9.12-9.64-20.56-18.58-33.53-22.24ZM173.65,118.1c-9.82,10.32-16.86,22.08-23.49,34.62l-1.48,2.78-1.34,2.61-1.21,2.33c-1,2.12-1,2.12-.85,5h66v-72C197.18,93.47,182.92,108.84,173.65,118.1Zm-38.37-4.63c-2.17,1-4.18,2.09-6.25,3.31l-1.88,1.1c-15.3,9.08-28.76,20.35-41.37,32.84l-2,2-1.94,1.95-1.7,1.71a112.29,112.29,0,0,0-6.83,9.09h38L115.72,155c6.12-14.18,12.94-27.73,21.56-40.56Zm180,0c4,7.34,4,7.34,8.09,14.59a283.43,283.43,0,0,1,17.91,37.41h38C365.29,146.82,339.52,118.57,315.28,113.47Zm-262,83C45.73,211.56,40,224.75,36,240.84c-.24,1-.49,2-.74,3-2.2,9.29-2.93,18-4,27.66h59a46.42,46.42,0,0,0,1.4-9c.75-11.19,1.76-22.27,3.48-33.36l.45-3c1.6-10,3.69-19.8,5.67-29.73Zm80,0c-3,11-5.88,21.31-7.69,32.44l-.6,3.4c-2.17,13.07-2.72,25.79-3.71,39.16h90v-75Zm108,0v75h90c-1.56-37.63-1.56-37.63-12-75Zm110,0L353.53,207c2.08,10.14,3.69,20.3,5,30.56l.5,3.8c.94,7.64,1.58,15.25,2,22.93a22.31,22.31,0,0,0,1.25,7.15h59c-1.64-15.35-1.64-15.35-4.62-30.31-.26-1-.52-2.1-.78-3.18a175.55,175.55,0,0,0-16.6-41.51Zm-320,106C33,317.26,33,317.26,35.91,331.72l.77,3.18c3.68,14.53,9.41,27.94,15.6,41.57h49c-.93-4.6-1.85-9.2-2.81-13.94a374,374,0,0,1-7-54.37,12.09,12.09,0,0,0-1.21-5.69Zm90,0c1.48,20.89,1.48,20.89,4.31,41.5l.57,3.52c1.7,10,4.37,19.08,7.12,29h78v-74Zm120,0v74h78c3.05-11,5.89-21.35,7.69-32.5l.6-3.43c2.1-12.71,2.71-25.08,3.71-38.07Zm121,0a27.68,27.68,0,0,0-1.39,7.85l-.2,3c-.08,1.07-.15,2.13-.22,3.23-.68,9.15-1.66,18.19-3.06,27.25l-.46,3c-1.6,10-3.68,19.81-5.67,29.74h49c10.94-24.23,18.58-47.41,21-74Zm-289,105c7.47,10,15.34,19.12,25,27l3.2,2.7a198.09,198.09,0,0,0,28,19.21c1.61.94,3.18,1.95,4.75,3l2.1,1.13,2-1-1.54-2.26A258.73,258.73,0,0,1,123.09,434l-1.47-2.77c-4.05-7.81-7-15.51-10.34-23.79Zm71,0c8,16.8,15.57,32.29,28,46l1.43,1.58c9.52,10.36,20.88,20.1,34.57,24.42h3v-72Zm97,0v72c11.08-2.22,20.75-8.46,29-16l1.5-1.35c16.46-15,27.09-33.58,36.5-53.65v-1Zm100,0-3.81,9.19c-6.44,15.2-13.83,30.16-23.19,43.81,16.09-6,30.45-17.46,42.9-29.05,1.88-1.75,3.81-3.39,5.79-5,6.44-5.49,11.25-12.19,16.31-18.94Z"/></svg>