<svg id="Capa_1" data-name="Capa 1" xmlns="http://www.w3.org/2000/svg" viewBox="0 0 513.25 512.69"><defs><style>.cls-1{fill:#fff;}</style></defs><path class="cls-1" d="M43.63,138.69h426c0,54.43,0,108.86.06,164.94,0,17.22,0,34.44,0,52.18v30.73q0,10.31,0,20.61,0,11.88,0,23.75,0,6.08,0,12.16v11c0,2,0,3.93,0,5.89,0,1.15,0,2.31,0,3.49v3c-.12,2.24-.12,2.24-1.12,3.24-2.25.1-4.5.13-6.74.13H47.47c-2.84-.12-2.84-.12-3.84-1.12-.1-1.76-.13-3.52-.12-5.28V452c0-3.75,0-7.51,0-11.27q0-6.17,0-12.32,0-12,0-23.94V376.75q0-36.56,0-73.12Z"/><path class="cls-1" d="M55.73.05l5.43,0Q68.57,0,76,0c5.34,0,10.67,0,16,0q15.67,0,31.34,0,12.75,0,25.48,0h11Q194.41,0,229,0q29.63,0,59.26,0,34.42,0,68.87,0h11q12.72,0,25.44,0,15.49,0,31,0,7.9,0,15.81,0,7.25,0,14.5,0h5.22c15.29-.1,27.88,3,39.55,13.65,12,13.2,13.74,26.6,13.6,43.6,0,2,0,3.93,0,5.89,0,5.39,0,10.77,0,16.16q0,8.85,0,17.7,0,17.17-.05,34.34-.06,19.88,0,39.74,0,52.44-.16,104.88c-.1,78.11-.21,156.22-.31,236.69H.63C.53,434.58.42,356.48.32,276c0-24.68-.09-49.36-.14-74.79,0-30.09,0-30.09,0-44.17q0-14.78,0-29.55,0-17.05,0-34.09c0-5.81,0-11.62,0-17.44q0-7.89,0-15.77c0-1.9,0-3.8,0-5.7-.12-15.92,2.46-28.56,13.63-40.8C26.19,2.22,39.46-.06,55.73.05ZM45.63,49.69l-1.49,1.63c-8.81,10.47-9.09,23.38-9,36.38,0,1.69,0,3.38,0,5.06q0,6.92,0,13.83,0,7.59,0,15.17,0,14.7,0,29.4,0,17,0,34,0,44.9.13,89.8c.08,66.89.16,133.78.25,202.69h442c.06-66.74.12-133.49.19-202.25,0-21.09.05-42.17.08-63.9,0-18.88,0-18.88,0-37.75q0-12.63,0-25.25,0-14.56,0-29.13,0-7.45,0-14.9,0-6.74,0-13.48c0-1.62,0-3.25,0-4.87.09-15-1.56-26.89-11.93-38.28C453.94,37,442.56,35.38,426.58,35.43h-17.1q-6.76,0-13.53,0-13.24,0-26.48,0H280.2q-26.7,0-53.4,0-27.44,0-54.87,0-15.39,0-30.79,0-13.09,0-26.21,0-6.68,0-13.36,0-6.13,0-12.26,0H84.9C69.24,35.22,56.35,37.51,45.63,49.69Z"/><path class="cls-1" d="M108.58,62.28a34.22,34.22,0,0,1,13,17.41c.9,10.63,0,18.38-6.54,27-5.09,5.72-11.12,8.47-18.68,9.36-9.33.34-15.7-1.76-23-7.44-6.31-5.94-9-13-9.31-21.57.44-9.77,4.42-16.77,11.56-23.37A30.4,30.4,0,0,1,108.58,62.28Z"/><path class="cls-1" d="M193.48,62.15c6.89,4.94,11.18,10.15,13.15,18.54,1.11,9.39-.11,16.48-5.54,24.19-4.61,5.74-9.57,8.51-16.46,10.81-10.66.9-18-.55-26.31-7.25a27.06,27.06,0,0,1-8.93-17.54c-.22-9.87,1.09-17.18,7.93-24.59C167.33,57.26,181.53,55.05,193.48,62.15Z"/><path class="cls-1" d="M277.45,61.37C285,65.93,288.9,72.5,291.63,80.69c.94,10.15-.76,18.21-7.06,26.31-5.95,6.22-13,8.94-21.5,9.25-8.35-.38-14.64-2.55-20.82-8.25-6.87-7.59-8.36-14.43-8.07-24.64a27.49,27.49,0,0,1,10.45-18.67C254.69,57.75,266,56,277.45,61.37Z"/></svg>