<svg id="Capa_1" data-name="Capa 1" xmlns="http://www.w3.org/2000/svg" viewBox="0 0 512.05 511.92"><defs><style>.cls-1{fill:#fff;}</style></defs><path class="cls-1" d="M45.53,1.12c-9.1,1.7-21.3,8.4-28.6,15.7-7.6,7.6-14.1,19.6-15.8,29.5-1.51,8.3-1.51,410.9,0,419.2,1.7,9.9,8.2,21.9,15.8,29.5s19.6,14.1,29.5,15.8c4.1.8,69.5,1.1,210,1.1,173.3,0,205.1-.3,210.9-1.5,16.2-3.4,31.2-15.3,38.5-30.5a76.7,76.7,0,0,0,5.1-14.4c1.5-8.3,1.5-410.9,0-419.2-3.8-21.2-22.5-40.4-43.6-44.9-5.8-1.3-37.5-1.5-211.8-1.4C132.23.12,48.53.52,45.53,1.12Zm416.7,29.8a28.87,28.87,0,0,1,16.2,13l3.1,5.5v413l-3.1,5.5a28.87,28.87,0,0,1-16.2,13c-5.1,1.4-407.3,1.4-412.4,0a28.87,28.87,0,0,1-16.2-13l-3.1-5.5v-413l3.1-5.5c3.2-5.8,9.9-11.2,15.8-12.9C53.93,29.72,457.53,29.62,462.23,30.92Z"/><path class="cls-1" d="M101.23,60.62c-3.5.7-8.9,6.4-10.1,10.8-.6,2.4-1.1,13.2-1.1,26.7v22.8h-9.7c-11.9,0-15.4,1.6-18.4,8.5-1.9,4.3-2,6.4-1.7,37.8.3,36.7.2,36,7.2,40.9,2.5,1.9,4.7,2.3,12.8,2.6l9.8.4v112.7c0,78.1.3,113.8,1.1,116.5a15.71,15.71,0,0,0,10.8,10.7c3.7,1.1,4.7,1,8.9-.7a16.36,16.36,0,0,0,6.9-5.3l2.3-3.4V210.92h8.8c10.5,0,16.4-2.4,19.7-8,1.9-3.3,2-5.2,2-37.5,0-33.3,0-34.1-2.2-37.5-3.5-5.6-5.7-6.4-17.3-7l-10.5-.5-.5-25.5c-.6-28.9-.7-29.6-8.3-33.1C107.63,60,105.73,59.82,101.23,60.62Zm19.6,105-.3,14.8-15.2.3L90,181v-30.1h31.1Z"/><path class="cls-1" d="M199.13,62.12c-8.8,4.7-8.1-5.9-8.1,124v114.8h-8.8c-10.6,0-16.4,2.4-19.4,8-1.7,3.2-1.8,6.1-1.6,38.7l.3,35.3,3.6,3.6c4.1,4.1,8.4,5.3,19.2,5.4H191v24.3c0,28.1.3,29.5,8.3,33.5,5.6,2.9,11.2,2.3,15.9-1.6,5.4-4.6,5.8-6.8,5.8-32.5v-23.4l9.4-.5c10.3-.6,14.3-2.1,18-7.1,2-2.8,2.1-3.8,2.1-38.2,0-34.1-.1-35.4-2.1-38.1-4.3-5.9-6.8-6.9-17.5-7.2l-9.9-.4-.2-115.3c-.3-114.7-.3-115.4-2.4-118.1C213.23,60.32,206.13,58.42,199.13,62.12Zm21.7,284-.3,15.3-14.7.3L191,362v-31.1h30.1Z"/><path class="cls-1" d="M301.63,60.92a16.76,16.76,0,0,0-5.4,3.2c-5.2,4.8-5.2,4.6-5.2,62.7v53.9l-10.4.4c-11.7.3-14.4,1.5-17.7,7.8-1.7,3.2-1.9,6.3-1.9,36.4,0,30.9.1,33.2,2,37.1,3.1,6.4,7.7,8.5,18.9,8.5H291v84c0,68.7.2,84.7,1.4,87.3a16,16,0,0,0,11.6,9.2c4.8.8,11.4-2,14.5-6.3,2-2.6,2-4.5,2.3-88.5l.2-85.7h9.3c10.7,0,14.9-1.6,18.4-6.9,2.3-3.4,2.3-3.7,2.3-38,0-32.8-.1-34.8-2-37.9-3.5-5.7-7.2-7.2-18.2-7.2H321v-54.8c0-62.1.3-59.5-8-63.9C308.43,59.82,306.33,59.52,301.63,60.92Zm19.4,165v15H291v-30h30Z"/><path class="cls-1" d="M400.33,61.82a16.55,16.55,0,0,0-6.3,5.3c-2,3.3-2,4.7-2,118.4v115.2l-10.3.4c-8.7.3-10.7.7-13.5,2.6-6.7,4.8-6.7,5-6.7,42.7,0,32.2.1,34.2,2,37.3,3.4,5.7,7.5,7.5,18.6,8l9.9.5v24.7c0,24,.1,24.8,2.3,28.1a16.36,16.36,0,0,0,6.9,5.3c4.2,1.7,5.2,1.8,8.9.7a15.71,15.71,0,0,0,10.8-10.7c.6-2.3,1.1-13.2,1.1-26v-22.1l9.4-.5c11.4-.6,15.1-2.4,18.4-8.8,2.2-4.5,2.3-4.8,2-38.2l-.3-33.6-3.1-3.9c-3.9-4.8-7.8-6.2-18.1-6.2l-8.3-.1-.2-114.8c-.3-106.7-.4-114.9-2-117.9A14.79,14.79,0,0,0,400.33,61.82Zm21.5,284.3-.3,15.3h-30l-.3-14c-.1-7.6,0-14.5.2-15.2.4-1,4.2-1.3,15.6-1.3h15.1Z"/></svg>