<svg id="Capa_1" data-name="Capa 1" xmlns="http://www.w3.org/2000/svg" viewBox="0 0 511.65 426.01"><defs><style>.cls-1{fill:#fff;}</style></defs><path class="cls-1" d="M128.92,1.8a17.51,17.51,0,0,0-5.5,4.5c-2,2.7-2.1,4.5-2.6,30.5l-.5,27.7-56.2.5-56.2.5-3,2.9a19.14,19.14,0,0,0-4,5.5c-.8,1.8-1,52.1-.9,172.6l.3,170,2.2,3.1c5,7-17.3,6.4,253.3,6.4s248.3.6,253.3-6.4l2.2-3.1.3-170c.1-120.5-.1-170.8-.9-172.6a19.14,19.14,0,0,0-4-5.5l-3-2.9-56.2-.5-56.2-.5-.5-27.7c-.5-26-.6-27.8-2.6-30.5a17.51,17.51,0,0,0-5.5-4.5C379.52.1,371.42,0,255.82,0S132.12.1,128.92,1.8ZM361.82,47V65h-212V29h212Zm121,198.5V397h-454V94h454Z"/><path class="cls-1" d="M121.32,119.9c-5.1,3.1-6.8,5.8-7.3,11.4-.3,4.2.1,5.8,2,8.7,5.1,7.6-6.1,7,140.3,7,148.7,0,135.8.8,140.4-8.3,2.6-5.3,2.4-9.1-.9-14.5-4-6.6,4.3-6.2-140.2-6.2C129.52,118,124.22,118.1,121.32,119.9Z"/><path class="cls-1" d="M220.32,161.7a17,17,0,0,0-9,7.3,16.23,16.23,0,0,0,.6,14.7c3.9,6.3,4,6.3,44.2,6.3,36.2,0,36.4,0,39.8-2.3,9-6,8.8-17.2-.5-24.1-2.6-2-4.1-2.1-37.9-2.3C238.12,161.3,221.42,161.4,220.32,161.7Z"/><path class="cls-1" d="M134.82,183.6c-38.2,6.9-67.3,29.9-80.6,63.6-14.5,37-5.7,80.1,22.3,108.2,30,30.2,73.5,38.7,112.3,22.1,33.7-14.5,57.6-47.2,60.8-83.5,3.8-42.8-18-81.8-56.3-100.5-15.3-7.5-24.6-9.7-42-10.1C143.62,183.3,136.22,183.4,134.82,183.6Zm34.5,31.4c12.5,3.9,20.2,8.7,30.1,18.5,7.6,7.6,9.8,10.5,13.8,18.5,5.4,11.1,7.6,20.1,7.6,32.3a71.82,71.82,0,0,1-24.2,54.2c-6.9,6.2-20.7,13.6-29.9,15.9-26,6.6-52.8-1.5-71.2-21.4a70.07,70.07,0,0,1-18.8-48.5c0-22.2,9-41.6,25.9-55.8,7.1-6,21.5-13.1,30.7-15.1C143.12,211.4,160,212.1,169.32,215Z"/><path class="cls-1" d="M134.82,232.4c-12.7,3.6-27.2,15-33.3,26.3-3.3,6.2-6.7,18.9-6.7,25.2a55.11,55.11,0,0,0,16.1,38c11.6,11.6,25.9,17,41.7,15.8,22.6-1.8,40.4-16.2,47.8-38.7,2.6-8,2.3-22.5-.6-31a55.15,55.15,0,0,0-36.9-35.4C156.42,230.7,141.42,230.6,134.82,232.4Zm26.6,31.2a23,23,0,0,1,11.2,18.9c.5,7.8-1,12.6-5.6,17.7-5.3,5.9-10.5,8.2-18.2,8.2-14,0-24.4-10.5-24.3-24.6s11.1-24.2,25.4-23.6C155.22,260.5,157.52,261.2,161.42,263.6Z"/><path class="cls-1" d="M348.32,183.7a107.29,107.29,0,0,0-30,9.8C280,212.2,258.22,251.2,262,294c2.1,23.2,11.3,43.1,28.3,60.8,39.3,41.2,104.2,41.4,144.8.6,28-28.1,36.8-71.2,22.3-108.2-11.8-30.1-37.8-52.9-69.8-61.3-6.2-1.6-11.8-2.3-22.3-2.5C357.62,183.3,350,183.4,348.32,183.7Zm29.3,29.9c9.7,1.9,23.9,8.8,31.4,15.1,16.9,14.2,25.9,33.6,25.9,55.8,0,47.1-44.3,81.4-90,69.9-9.2-2.3-23-9.7-29.9-15.9a71.82,71.82,0,0,1-24.2-54.2c0-12.2,2.2-21.2,7.6-32.3,4-8,6.2-10.9,13.8-18.5,11.5-11.5,22.6-17.4,37.7-20.4C357.12,211.7,369.32,211.9,377.62,213.6Z"/><path class="cls-1" d="M347.82,232.9c-9.3,3-15.9,6.9-22.3,13.4-11.2,11.2-15.9,22.2-16,37.7-.1,14.3,4.7,26.8,14.3,36.8,9.8,10.3,21.3,15.8,35.2,16.9,30.6,2.4,57.7-22.8,57.8-53.8,0-6.3-3.4-19-6.7-25.2-6.2-11.5-20.7-22.9-33.8-26.3C369.12,230.4,354.52,230.7,347.82,232.9Zm24.5,29c9.4,4.2,14.7,12.1,14.8,21.9.1,14.1-10.3,24.6-24.3,24.6-7.4,0-12.5-2.2-17.7-7.6-8.2-8.5-8.6-22.2-.8-32.4C350,260.9,363.42,257.8,372.32,261.9Z"/></svg>