<svg id="Capa_1" data-name="Capa 1" xmlns="http://www.w3.org/2000/svg" viewBox="0 0 521.8 521.7"><defs><style>.cls-1{fill:#fff;stroke:#fff;stroke-miterlimit:10;stroke-width:10px;}</style></defs><path class="cls-1" d="M430.52,7c-3.9,3.1-3.5,7.4,1.1,12.1l3.7,3.8-4.9,5c-2.7,2.8-5.3,5-5.8,5s-2.7-1.6-4.8-3.5c-4.5-4-6.6-4.3-10.3-1.4-3.9,3.1-3.6,7.9.8,12.7l3.5,3.7-5.2,5.2-5.1,5.3-3.8-3.7c-4.8-4.6-9-4.9-12.5-.8-3.1,3.5-2.5,6.7,2.3,11.5l3.4,3.6-3.5,3.4c-2.9,2.8-4.3,5.9-8.6,18.9l-5.1,15.6-33.6,33.7-33.6,33.7-3.9-3.2c-18-14.8-34.7-21.4-56.2-22.4-24.8-1.1-46.7,6.9-64.8,23.6-8.5,7.9-13.3,14.6-23.3,32.5-9.5,17-15.1,23.8-22.6,27.4-2.4,1.2-15.4,5.1-29,8.7s-27.8,7.6-31.5,9c-26.3,9.9-49.3,31.2-61.3,56.8-17.3,36.8-13.9,78.5,9.2,112.5,7.2,10.7,70.3,73.7,81.1,81.1,55.8,37.9,130.8,20,163-38.9,5.4-9.8,8.1-17.6,15.2-44.7,3.6-13.6,7.5-26.8,8.7-29.3,3.5-7.3,10.2-12.9,24.8-20.9,18.1-10,23.2-13.4,31.3-21,18.8-17.7,28.7-42.6,27.4-69.1-1-21-7.8-37.9-22.4-55.7l-3.2-3.9,33.7-33.6,33.7-33.6L434,141c13-4.3,16.1-5.7,18.9-8.6l3.4-3.5,3.6,3.4c4.8,4.8,8,5.4,11.5,2.3,4.1-3.5,3.8-7.7-.8-12.5l-3.7-3.8,5.3-5.1,5.2-5.2,3.7,3.5c4.8,4.4,9.6,4.7,12.7.8,2.9-3.7,2.6-5.8-1.4-10.3-1.9-2.1-3.5-4.3-3.5-4.8s2.2-3.1,5-5.8l5-4.9,3.8,3.7c4.7,4.6,9,5,12.1,1.1s2.6-6.8-1.5-11.4l-3.6-4,3.6-4c4.4-4.9,4.5-7.6.6-12.5a23,23,0,0,1-5-13.6c0-6.4-4-15.7-9.1-21.3-6.2-6.8-12.8-10.1-23.2-11.5-8.3-1.2-10.5-2-15-5.7-4-3.3-7-3-11.7,1.2l-4,3.6-4-3.6C437.32,4.33,434.32,4,430.52,7Zm30.3,17.5a39.4,39.4,0,0,0,9.9,2.6c17.3,2.6,21.1,6.5,24.1,24.5a40.15,40.15,0,0,0,2.7,9.8l1.7,3.7-28.7,28.7-28.7,28.7-13.1,4.3-13.1,4.3-12.5-12.5-12.4-12.5,4.2-12.8,4.2-12.9,28.7-28.8c15.7-15.8,28.9-28.7,29.2-28.7a21.68,21.68,0,0,1,3.8,1.56Zm-67.9,104.9,10.5,10.5-5.3,5.2-5.2,5.3-10.7-10.7-10.8-10.8,5-5c2.7-2.7,5.2-5,5.5-5s5.2,4.66,11,10.46Zm-21,21,10.5,10.5-48.5,48.5c-26.7,26.7-48.7,48.5-49.1,48.5s-1.3-1.6-2.2-3.5c-2.4-5-8.3-11.2-13.6-14.2-2.5-1.5-4.8-2.8-5.1-3-.4-.4,96.1-97.3,97-97.3.3,0,5.2,4.66,11,10.46Zm-112.2,11.1c13.3,2.7,27.4,9.8,34.7,17.4l2.9,3.1-26.9,26.9c-18.2,18.2-27.7,27-29.1,27-3.8,0-14.1,6-18.4,10.6-6.5,7.1-9.4,14.3-9.8,24.4-.3,6.9,0,9.6,1.8,14.3,12.5,33.4,60.4,32,70.6-2.1,1.4-4.6,3.1-7.1,8.8-13l7.1-7.3.6,4.8c.9,6.1-.5,16.8-3,23.3-8.6,22.7-32.9,36.9-56.8,33.2-16.4-2.6-31.9-13.8-39-28.2-4.1-8.4-5.2-13.6-5.3-24.1,0-22.1,12.7-40.2,34.3-48.8,3.2-1.3,6.2-3.2,6.7-4.2a8.23,8.23,0,0,0-.9-9c-2.7-3.4-7.5-2.8-17.8,2.1-7.2,3.5-10.4,5.8-17.4,12.9-13.8,13.8-19.9,28.4-19.9,47.6,0,12.2,1.6,19.2,7.2,30.5,3.2,6.7,5.8,10.2,12.2,16.6,9.1,9,15.4,13,27.1,17,7.1,2.5,9.4,2.8,20.5,2.8s13.4-.3,20.5-2.8c11.7-4,18-8,27.1-17,6.8-6.8,8.9-9.7,12.7-17.6a88.94,88.94,0,0,0,5.8-15.5c1.7-8.4,1.5-21.8-.5-29.5l-1.7-6.4,13-13,13-13,3.1,2.9a61.43,61.43,0,0,1,7.5,10c18.5,29.8,14.4,67.2-10,92-7.1,7.3-13,11.2-33.5,22.6-13.4,7.4-21.9,15.2-26.7,24.4-2.1,3.9-5.6,15.4-10.3,33-9.6,36.5-14.5,46.8-29.4,62.4a96.92,96.92,0,0,1-45.3,26.8c-13.5,3.6-34.4,3.8-47.6.5a97.87,97.87,0,0,1-31.2-13.7c-11.1-7.4-74.2-70.7-80.9-81.2a100.63,100.63,0,0,1-12.7-29.3c-3.2-12.1-3.3-33.7-.1-46.3A95,95,0,0,1,47.32,284c15.9-16.4,27.6-22.2,65.1-32.1,17.8-4.7,29-8.2,33-10.3,9.2-4.9,17-13.4,24.4-26.7,11.4-20.6,15.3-26.4,22.6-33.5a73.55,73.55,0,0,1,67.3-19.94Zm.3,91.1a22.22,22.22,0,0,1,1.2,39,23,23,0,0,1-30.1-6.9c-2.4-3.7-2.7-5.1-2.7-12.4,0-7.5.3-8.6,3-12.6,3.8-5.5,11.9-9.8,18.5-9.8A22.9,22.9,0,0,1,260,252.53Z"/><path class="cls-1" d="M114.42,323.73c-1.1.5-7.3,6.3-13.7,12.8-10.4,10.5-11.8,12.4-11.8,15.4s3.1,6.4,38.9,42.3c37,37.1,39.2,39,42.6,39s4.7-1.1,16.1-12.5c11-11.1,12.4-12.9,12.4-16s-3-6.3-38.7-42.1c-24.8-24.7-39.7-38.9-41.3-39.2A9.66,9.66,0,0,0,114.42,323.73Zm9,23.1,4.9,5-4.9,5c-2.7,2.7-5.4,5-6,5s-3.3-2.3-6-5l-4.9-5,4.9-5c2.7-2.8,5.4-5,6-5s3.3,2.2,6,5Zm26.3,26.3,10.2,10.3-5.5,5.4-5.5,5.4-10.5-10.4-10.5-10.5,5.2-5.2c2.9-2.9,5.5-5.3,5.8-5.3S144,367.43,149.72,373.13Zm26.7,26.7,4.9,5-4.9,5c-2.7,2.7-5.4,5-6,5s-3.3-2.3-6-5l-4.9-5,4.9-5c2.7-2.8,5.4-5,6-5s3.3,2.2,6,5Z"/></svg>