<svg id="Capa_1" data-name="Capa 1" xmlns="http://www.w3.org/2000/svg" width="26.89mm" height="46.37mm" viewBox="0 0 76.23 131.45"><defs><style>.cls-1{fill:#fff;}</style></defs><path class="cls-1" d="M19.74.26a13.66,13.66,0,0,0-9.68,10.11,25.15,25.15,0,0,0,.41,8.18c1.34,4.94,4.77,10,9.59,14C24,35.86,29.53,39,31.4,39s7.4-3.37,11.72-7c6-5.17,9.27-11,9.57-17.39C53,9.19,51.23,5.17,47.42,2.32A11.38,11.38,0,0,0,40,0a12.38,12.38,0,0,0-8.24,2.72c-.3.23-.73.08-2.14-.77a16.13,16.13,0,0,0-3-1.47A16.26,16.26,0,0,0,19.74.26ZM24.86,8.1a6.6,6.6,0,0,1,3,3.19c1.54,3.09,5.28,3,7-.12,1.26-2.34,2.9-3.53,4.95-3.55,3.26,0,5.4,2.34,5.4,5.91,0,3.81-1.56,7-5.3,10.81-2.63,2.7-7.63,6.43-8.59,6.43-.68,0-4.67-2.67-7-4.66a24.51,24.51,0,0,1-5.48-6.81c-1.44-2.91-1.84-6.54-1-8.47a5.3,5.3,0,0,1,7-2.72Z"/><path class="cls-1" d="M54.06,33.37a14,14,0,0,0-3,1.06c-1.52.72-2.73,1.88-12.93,12.19C31.91,52.9,26.78,58.05,26.68,58.05s-.18-.18-.18-.41a117.84,117.84,0,0,0-4.69-11.09,13.42,13.42,0,0,0-2.73-4.33A11.17,11.17,0,0,0,9.58,39a11.44,11.44,0,0,0-9.24,14c.2.8,1.44,3.91,2.75,6.94s2.5,5.84,2.65,6.28A23.34,23.34,0,0,1,6.3,78,28.15,28.15,0,0,1,4.81,82.1c-2.45,5-3.08,7.41-3.26,12.17a27,27,0,0,0,4.57,16.65c1.39,2.08,11.12,12.32,13.79,14.56a30.58,30.58,0,0,0,10.26,5.3c2.24.59,3,.67,6.69.67s4.44-.08,6.62-.67a31.07,31.07,0,0,0,8.61-3.94c1.29-.87,4.75-4.19,12-11.52,10.66-10.86,11-11.32,11.84-14.44a11.78,11.78,0,0,0-2.24-10,12.24,12.24,0,0,0-7-3.88c-.58-.13-.7-.34-.93-1.55a11.27,11.27,0,0,0-8.44-8.74l-1.56-.34-.33-1.47a11.51,11.51,0,0,0-4.32-6.86c-.65-.47-1.24-.88-1.29-.93s3.36-3.65,7.61-8c6.69-6.87,7.8-8.11,8.48-9.57A11.27,11.27,0,0,0,54.06,33.37Zm3.46,8A2.68,2.68,0,0,1,59.11,43c1,2.36,1.72,1.51-13.66,17.23C37.84,68,31.48,74.64,31.33,75a4.76,4.76,0,0,0-.28,1.67,3.76,3.76,0,0,0,5.2,3.53,21.67,21.67,0,0,0,3.64-3.22c2-2,3.23-3,3.79-3.19A3.46,3.46,0,0,1,48,77.21c0,1.34-.28,1.75-3.28,4.89-2.33,2.42-2.75,3-2.91,3.91a4.12,4.12,0,0,0,1.7,3.89,4.17,4.17,0,0,0,3.56.28,34,34,0,0,0,3.2-2.93c2.78-2.75,3.89-3.4,5.31-3.09a3.68,3.68,0,0,1,2.66,4.44c0,.13-.07.25-.11.37a28.75,28.75,0,0,1-3,3.6c-3.15,3.37-3.46,4-2.7,6a3.48,3.48,0,0,0,2.9,2.37c1.7.23,2.25-.11,5.31-3.14,2.3-2.29,3.13-3,3.84-3.09a3.55,3.55,0,0,1,3.89,5c-.21.39-4.78,5.15-10.18,10.6-6.85,6.93-10.23,10.17-11.24,10.78a19.19,19.19,0,0,1-20.1,0c-1.75-1-12.45-11.7-14.09-14a20.15,20.15,0,0,1-1.44-20.79l1.18-2.34L33.32,62.6c14.4-14.72,21.07-21.35,21.6-21.51A2.79,2.79,0,0,1,57.52,41.32ZM12.74,47c1.26.62,1.41.9,4.29,7.47a35.65,35.65,0,0,1,2.38,6.38c.43,3.06-.51,5.4-3.21,8.1l-1.74,1.78-.28-1.93c-.43-2.89-1.34-5.54-4.09-11.92a41.58,41.58,0,0,1-2.53-6.61,3.72,3.72,0,0,1,2-3.21A2.74,2.74,0,0,1,12.74,47Z"/></svg>