<?xml version="1.0" encoding="UTF-8" standalone="no"?>
<!-- Created with Inkscape (http://www.inkscape.org/) -->

<svg
   width="71.518814mm"
   height="55.108356mm"
   viewBox="0 0 71.518814 55.108356"
   version="1.1"
   id="svg1"
   xml:space="preserve"
   xmlns:inkscape="http://www.inkscape.org/namespaces/inkscape"
   xmlns:sodipodi="http://sodipodi.sourceforge.net/DTD/sodipodi-0.dtd"
   xmlns:xlink="http://www.w3.org/1999/xlink"
   xmlns="http://www.w3.org/2000/svg"
   xmlns:svg="http://www.w3.org/2000/svg"><sodipodi:namedview
     id="namedview1"
     pagecolor="#4e4e4e"
     bordercolor="#000000"
     borderopacity="0.25"
     inkscape:showpageshadow="2"
     inkscape:pageopacity="0.0"
     inkscape:pagecheckerboard="0"
     inkscape:deskcolor="#505050"
     inkscape:document-units="mm"><inkscape:page
       x="-9.8868179e-13"
       y="0"
       width="71.518822"
       height="55.108356"
       id="page2"
       margin="0"
       bleed="0" /></sodipodi:namedview><defs
     id="defs1"><linearGradient
       id="linearGradient5"
       inkscape:collect="always"><stop
         style="stop-color:#000032;stop-opacity:1;"
         offset="0"
         id="stop5" /><stop
         style="stop-color:#000032;stop-opacity:0;"
         offset="1"
         id="stop6" /></linearGradient><linearGradient
       id="linearGradient3"
       inkscape:collect="always"><stop
         style="stop-color:#000032;stop-opacity:1;"
         offset="0"
         id="stop3" /><stop
         style="stop-color:#000032;stop-opacity:0;"
         offset="1"
         id="stop4" /></linearGradient><linearGradient
       id="linearGradient1"
       inkscape:collect="always"><stop
         style="stop-color:#44449e;stop-opacity:1;"
         offset="0"
         id="stop1" /><stop
         style="stop-color:#8a0194;stop-opacity:1;"
         offset="1"
         id="stop2" /></linearGradient><linearGradient
       inkscape:collect="always"
       xlink:href="#linearGradient1"
       id="linearGradient2"
       x1="93.353348"
       y1="10.772016"
       x2="125.7753"
       y2="55.445309"
       gradientUnits="userSpaceOnUse"
       gradientTransform="translate(40.371155,-8.428713)" /><radialGradient
       inkscape:collect="always"
       xlink:href="#linearGradient3"
       id="radialGradient4"
       cx="142.27348"
       cy="12.376072"
       fx="142.27348"
       fy="12.376072"
       r="35.759411"
       gradientTransform="matrix(1,0,0,0.77054335,0,2.8397721)"
       gradientUnits="userSpaceOnUse" /><radialGradient
       inkscape:collect="always"
       xlink:href="#linearGradient5"
       id="radialGradient6"
       cx="142.27348"
       cy="12.376072"
       fx="142.27348"
       fy="12.376072"
       r="35.759411"
       gradientTransform="matrix(1,0,0,0.77054335,0,2.8397721)"
       gradientUnits="userSpaceOnUse" /></defs><g
     inkscape:label="Capa 1"
     inkscape:groupmode="layer"
     id="layer1"
     transform="translate(-106.51406,15.178105)"><path
       style="fill:url(#radialGradient6);fill-opacity:1;stroke:url(#radialGradient4);stroke-width:5;stroke-dasharray:none;stroke-opacity:1"
       d="m 136.89967,-12.737913 c 0.99829,2.54638 2.47838,4.5739294 2.60766,7.4083394 0.31397,6.8837605 -2.80497,12.85506 -1.02016,19.8437506 h -0.26458 C 132.43687,4.7960564 123.67424,2.3005069 113.08717,1.8141769 c 1.26944,2.3850395 3.55182,4.1644995 5.14811,6.3500095 5.54269,7.5886206 9.80775,13.7437506 19.98731,13.7583206 v 0.26458 c -1.87661,0.27679 -3.69878,0.31934 -5.55625,-0.12585 -6.84436,-1.64042 -19.51779,-10.11685 -23.28333,0.9196 l 0.26458,0.26459 c 1.38598,-0.89783 2.63766,-2.0393 4.23419,-2.55566 4.30427,-1.39212 8.56728,0.86737 12.69914,1.76191 v 0.26458 c -3.0994,7e-5 -6.62357,-0.2449 -9.17545,1.8704 -2.92691,2.42616 -1.46556,6.11809 2.0317,6.59627 -2.76182,-6.02372 6.8316,-6.61404 10.58334,-6.61459 v 0.26459 c -3.52656,1.22913 -7.6879,3.88892 -4.7625,7.937502 2.23354,-6.029312 8.25244,-5.342952 13.22916,-7.937502 -0.9237,3.04959 -1.76994,6.56698 -0.005,9.506712 2.37045,3.947213 8.42594,4.223593 10.94307,0.2537 2.90749,-4.585542 -4.46407,-9.030712 -7.23438,-4.468752 1.31192,0.10028 2.9664,-0.18895 4.09115,0.63603 1.84659,1.354422 0.46115,3.744212 -1.45014,4.065142 -1.29226,0.21698 -2.44325,-0.63594 -3.23042,-1.57364 -2.6136,-3.113432 -0.81589,-6.706652 0.32483,-10.006692 h 0.26458 c 2.52075,5.54049 10.45343,4.43131 12.7,10.318752 3.56234,-1.24832 -0.30982,-6.192052 -2.38125,-6.879172 v -0.26458 c 3.48896,-0.075 12.93854,-0.88411 8.99583,5.291662 3.27511,0.19797 6.01759,-3.158912 3.27371,-5.874312 -2.01289,-1.99199 -4.8979,-1.7982 -7.50704,-1.7986 v -0.26459 c 6.40876,-1.76402 10.94903,-4.46288 17.4625,-1.32291 l 0.26458,-0.26459 c -4.22128,-8.57296 -15.16305,-1.69929 -21.43125,0.043 -1.7439,0.48474 -3.49678,0.48482 -5.29166,0.48613 v -0.26458 c 6.59819,-0.52992 10.02324,-6.80597 15.61041,-9.57768 3.45126,-1.71211 6.44741,-1.04912 10.05417,-0.47649 -1.12042,-5.4238506 -6.73967,-7.0905106 -11.64167,-7.1375706 -8.78804,-0.0844 -17.61437,3.77724 -19.84375,12.9584106 -0.40294,-4.05924 2.84274,-7.16989 4.52894,-10.5833406 3.11947,-6.3148796 1.89029,-13.98981 -4.26455,-17.9226294 -1.79577,-1.14747 -3.74305,-1.98733 -5.82064,-2.45029 m 13.75833,8.7312494 c -0.27412,-1.30513 -0.89745,-2.8676 -0.35311,-4.17425 0.70544,-1.6933697 2.38484,-1.4840897 1.67603,0.47009 l 0.26458,0.26458 c 2.65927,-0.99123 3.77511,-4.8672694 -0.004,-5.1052994 -4.59617,-0.28946 -4.5133,6.5920194 -1.58319,8.5448794 m -19.04999,-7.6729094 v 0.52916 c 3.29664,2.3058994 4.18831,4.3281294 5.55625,7.9374994 h 0.52916 c 0.79345,-4.41899 -0.70897,-9.2831894 -6.08541,-8.4666594 m -3.175,1.32291 c 0.61585,7.3206194 -0.39084,14.0970394 7.14375,17.9916694 1.96673,-6.4282796 -0.0285,-15.82781 -7.14375,-17.9916694 m 12.17083,1.0583394 c 1.225,1.24436 2.46132,2.48999 3.40623,3.96886 4.40378,6.8923305 -0.0191,12.64902 -2.08331,19.3144706 H 141.662 c 0.006,-4.1330906 1.38639,-7.8476306 1.83347,-11.9062501 0.22145,-2.01029006 0.23035,-4.0801505 -1.3043,-5.5562505 l -1.85208,17.4625006 h -0.26459 c -0.90404,-5.0381006 1.09037,-9.3286906 1.50307,-14.28750016 0.26023,-3.12683044 -0.88102,-5.94036044 -0.9739,-8.99583044 m 21.43125,0.26458 c -2.41445,1.43198 -4.94264,2.4019 -7.40728,3.70227 -2.88866,1.52409 -4.30148,4.216141 -4.46314,7.4099105 -0.0418,0.8249295 -0.2922,2.8264895 0.76416,3.1678595 1.34672,0.43521 3.49093,-1.40991 4.49164,-2.12201 3.87835,-2.75982956 7.40418,-7.11265 6.61462,-12.15803 m -30.95625,2.38125 c 1.76695,3.46202 2.64451,6.14966047 2.64583,10.05417 h -0.26458 c -1.83661,-3.12209956 -3.18464,-6.38247 -2.38125,-10.05417 m -7.40833,4.497921 h -1.32292 c 2.50585,-1.756061 3.36219,2.88058944 4.49792,4.2333295 0.56531,-1.99569006 0.72677,-4.1954005 -0.4831,-6.0117505 -1.24503,-1.86914 -4.21969,-2.53998 -5.79517,-0.65778 -1.99542,2.3839 1.83677,5.37939044 3.10327,2.4362 m 35.71874,-2.64584 c -1.37183,3.70966 -3.57048,5.61392044 -7.14375,7.1437505 1.25149,-3.5230905 3.85075,-5.5802805 7.14375,-7.1437505 m 0,8.73125 c 1.74745,-1.4005895 3.96349,-3.92112956 6.08542,-1.8520795 h -2.11667 c 1.73928,2.7929195 6.31775,1.1230495 4.74117,-2.08769006 -2.33202,-4.74920044 -8.88053,0.0857 -8.70992,3.93976956 m -41.80399,-0.26454 c 9.952,2.41405 16.75633,6.6306896 21.96042,15.6104206 -6.17526,-2.98788 -8.91548,-11.0778806 -16.66875,-11.1125006 4.79783,4.9195506 9.14695,10.1124006 15.875,12.1708306 v 0.26459 c -8.82218,-0.0747 -11.93674,-5.05584 -16.72975,-11.6416606 -1.35681,-1.86431 -3.16857,-3.38321 -4.43692,-5.29168 m 52.91666,6.6145796 -7.9375,0.264591 c -5.97362,-6.2425206 -13.30521,5.8328 -18.25624,7.40833 3.00591,-9.6689706 18.46509,-14.6090706 26.19374,-7.672921 m -55.56249,3.704171 -2.11667,-0.52917 c 3.03924,-2.24442 6.25851,1.36408 8.99583,2.64584 l 0.26459,-0.26459 c -1.23383,-2.73719 -3.85594,-5.478401 -6.87917,-6.1616406 -1.81611,-0.41043 -4.15833,0.24408 -4.76513,2.2053406 -0.8566,2.76862 3.11516,4.68576 4.50055,2.10422 m 47.09583,-3.43958 v 0.26458 c -6.58857,2.04829 -9.46317,9.96765 -16.66875,10.05417 l 9.78961,-8.2548 6.87914,-2.06395 m -1.5875,7.67292 c 2.26086,-0.8437 5.53061,-3.78417 7.67291,-1.58751 1.49947,-0.23906 3.10348,-1.7067 1.18619,-2.90358 -3.17335,-1.981 -7.77967,1.6752 -8.8591,4.49109"
       id="path1-1"
       sodipodi:nodetypes="cscccsccsccsccsccccccscsssccccccsccccsccscscssccsccsccccccccccsccscccsccscssccccccccsscccccccsccccccscccccccccssccccccccsc"
       inkscape:export-filename="tp_react._logo.svg"
       inkscape:export-xdpi="96"
       inkscape:export-ydpi="96" /><path
       style="display:inline;fill:url(#linearGradient2);stroke:none"
       d="m 136.89967,-13.796247 c 0.99829,2.54638 2.47838,4.5739301 2.60766,7.4083401 0.31397,6.8837604 -2.80497,12.8550599 -1.02016,19.8437499 h -0.26458 C 132.43687,3.737723 123.67424,1.2421735 113.08717,0.7558435 c 1.26944,2.3850395 3.55182,4.1644995 5.14811,6.3500095 5.54269,7.58862 9.80775,13.74375 19.98731,13.75832 v 0.26458 c -1.87661,0.27679 -3.69878,0.31934 -5.55625,-0.12585 -6.84436,-1.64042 -19.51779,-10.11685 -23.28333,0.9196 l 0.26458,0.26459 c 1.38598,-0.89783 2.63766,-2.0393 4.23419,-2.55566 4.30427,-1.39212 8.56728,0.86737 12.69914,1.76191 v 0.26458 c -3.0994,7e-5 -6.62357,-0.2449 -9.17545,1.8704 -2.92691,2.42616 -1.46556,6.11809 2.0317,6.59627 -2.76182,-6.02372 6.8316,-6.61404 10.58334,-6.61459 v 0.26459 c -3.52656,1.22913 -7.6879,3.88892 -4.7625,7.937502 2.23354,-6.029312 8.25244,-5.342952 13.22916,-7.937502 -0.9237,3.04959 -1.76994,6.56698 -0.005,9.506712 2.37046,3.947213 8.42594,4.223593 10.94308,0.2537 2.90749,-4.585542 -4.46408,-9.030712 -7.23439,-4.468752 1.31193,0.10028 2.9664,-0.18895 4.09115,0.63603 1.84659,1.354422 0.46115,3.744212 -1.45014,4.065142 -1.29226,0.21698 -2.44325,-0.63594 -3.23042,-1.57364 -2.6136,-3.113432 -0.81588,-6.706652 0.32483,-10.006692 h 0.26458 c 2.52075,5.54049 10.45343,4.43131 12.70001,10.318752 3.56234,-1.24832 -0.30982,-6.192052 -2.38126,-6.879172 v -0.26458 c 3.48897,-0.075 12.93855,-0.88411 8.99583,5.291662 3.27511,0.19797 6.01759,-3.158912 3.27371,-5.874312 -2.01289,-1.99199 -4.8979,-1.7982 -7.50704,-1.7986 v -0.26459 c 6.40877,-1.76402 10.94903,-4.46288 17.46251,-1.32291 l 0.26457,-0.26459 c -4.22128,-8.57296 -15.16305,-1.69929 -21.43125,0.043 -1.7439,0.48474 -3.49678,0.48482 -5.29166,0.48613 v -0.26458 c 6.59819,-0.52992 10.02324,-6.80597 15.61041,-9.57768 3.45126,-1.71211 6.44741,-1.04912 10.05417,-0.47649 -1.12042,-5.42385 -6.73967,-7.09051 -11.64167,-7.13757 -8.78804,-0.0844 -17.61437,3.77724 -19.84375,12.95841 -0.40294,-4.05924 2.84274,-7.16989 4.52894,-10.58334 3.11947,-6.3148795 1.89029,-13.9898099 -4.26455,-17.92263 -1.79577,-1.14747 -3.74305,-1.98733 -5.82064,-2.45029 m 13.75833,8.7312501 c -0.27412,-1.30513 -0.89745,-2.8676 -0.35311,-4.17425 0.70544,-1.6933701 2.38484,-1.4840901 1.67603,0.47009 l 0.26458,0.26458 c 2.65927,-0.99123 3.77511,-4.8672701 -0.004,-5.1053001 -4.59617,-0.28946 -4.5133,6.5920201 -1.58319,8.5448801 m -19.04999,-7.6729101 v 0.52916 c 3.29664,2.3059001 4.18831,4.3281301 5.55625,7.9375001 h 0.52916 c 0.79345,-4.41899 -0.70897,-9.2831901 -6.08541,-8.4666601 m -3.175,1.32291 c 0.61585,7.3206201 -0.39084,14.09704 7.14375,17.99167 1.96673,-6.4282795 -0.0285,-15.8278099 -7.14375,-17.99167 m 12.17084,1.05834 c 1.225,1.2443601 2.46132,2.4899901 3.40623,3.9688601 4.40378,6.8923304 -0.0191,12.6490199 -2.08331,19.3144699 h -0.26459 c 0.006,-4.13309 1.38639,-7.84763 1.83347,-11.9062495 0.22145,-2.01029 0.23035,-4.08015 -1.3043,-5.5562504 l -1.85209,17.4624999 h -0.26459 c -0.90404,-5.0381 1.09038,-9.32869 1.50308,-14.2874995 0.26023,-3.1268304 -0.88102,-5.9403604 -0.97391,-8.9958305 m 21.43126,0.26458 c -2.41445,1.4319801 -4.94264,2.4019001 -7.40728,3.7022701 -2.88866,1.52409 -4.30148,4.2161404 -4.46314,7.4099104 -0.0418,0.8249295 -0.2922,2.8264895 0.76416,3.1678595 1.34672,0.43521 3.49093,-1.40991 4.49164,-2.12201 3.87835,-2.7598295 7.40418,-7.1126499 6.61462,-12.15803 m -30.95626,2.3812501 c 1.76695,3.46202 2.64451,6.1496604 2.64583,10.0541699 h -0.26458 c -1.83661,-3.1220995 -3.18464,-6.3824699 -2.38125,-10.0541699 m -7.40833,4.4979204 h -1.32292 c 2.50585,-1.7560604 3.36219,2.88059 4.49792,4.23333 0.56531,-1.99569 0.72677,-4.1954 -0.4831,-6.0117504 -1.24503,-1.86914 -4.21969,-2.53998 -5.79517,-0.65778 -1.99542,2.3839 1.83677,5.3793904 3.10327,2.4362004 m 35.71875,-2.6458404 c -1.37183,3.7096604 -3.57048,5.6139204 -7.14375,7.1437504 1.25149,-3.52309 3.85075,-5.5802804 7.14375,-7.1437504 m 0,8.7312499 c 1.74745,-1.4005895 3.96349,-3.9211295 6.08542,-1.8520795 h -2.11667 c 1.73928,2.7929195 6.31774,1.1230495 4.74117,-2.08769 -2.33202,-4.7492004 -8.88054,0.0857 -8.70992,3.9397695 m -41.804,-0.26454 c 9.952,2.41405 16.75633,6.63069 21.96042,15.61042 -6.17526,-2.98788 -8.91548,-11.07788 -16.66875,-11.1125 4.79783,4.91955 9.14695,10.1124 15.875,12.17083 v 0.26459 c -8.82218,-0.0747 -11.93674,-5.05584 -16.72975,-11.64166 -1.35681,-1.86431 -3.16857,-3.38321 -4.43692,-5.29168 m 52.91667,6.61458 -7.9375,0.26459 c -5.97362,-6.24252 -13.30521,5.8328 -18.25624,7.40833 3.00591,-9.66897 18.46509,-14.60907 26.19374,-7.67292 m -55.5625,3.70417 -2.11667,-0.52917 c 3.03924,-2.24442 6.25851,1.36408 8.99583,2.64584 l 0.26459,-0.26459 c -1.23383,-2.73719 -3.85594,-5.4784 -6.87917,-6.16164 -1.81611,-0.41043 -4.15833,0.24408 -4.76513,2.20534 -0.8566,2.76862 3.11516,4.68576 4.50055,2.10422 m 47.09584,-3.43958 v 0.26458 c -6.58857,2.04829 -9.46317,9.96765 -16.66875,10.05417 l 9.78961,-8.2548 6.87914,-2.06395 m -1.5875,7.67292 c 2.26086,-0.8437 5.53061,-3.78417 7.67291,-1.58751 1.49947,-0.23906 3.10348,-1.7067 1.18619,-2.90358 -3.17335,-1.981 -7.77967,1.6752 -8.8591,4.49109"
       id="path1"
       sodipodi:nodetypes="cscccsccsccsccsccccccscsssccccccsccccsccscscssccsccsccccccccccsccscccsccscssccccccccsscccccccsccccccscccccccccssccccccccsc"
       inkscape:export-filename="tp_react._logo.svg"
       inkscape:export-xdpi="96"
       inkscape:export-ydpi="96" /></g></svg>
