<svg id="Capa_1" data-name="Capa 1" xmlns="http://www.w3.org/2000/svg" viewBox="0 0 511.1 511.86"><defs><style>.cls-1{fill:#fff;}</style></defs><path class="cls-1" d="M120.55.5a144.76,144.76,0,0,0-62,22.9c-9.6,6.4-29.1,25.9-35.5,35.5a146.42,146.42,0,0,0-21.2,51c-2.7,12.9-2.4,38.9.6,53.9C8.55,195,25,229.4,44,251.4l5.1,5.9.5,33.1.5,33,2.6,5.6A35.19,35.19,0,0,0,82,349.6a63.37,63.37,0,0,1,6.6.7s-1.5,25.1-3.4,55.6c-3.9,64-3.9,64.8,3.7,79.3,3.7,7.1,14.5,17.5,21.8,21,20.2,9.8,43.1,6.7,58.9-7.9,9.9-9.2,15.2-19.1,16.9-31.8.6-4.3-.2-22.3-2.5-60.1-1.8-29.7-3.3-54.5-3.4-55.1s2.7-1.3,6.6-1.7a35.19,35.19,0,0,0,29.3-20.6l2.6-5.6.5-33,.5-33,5.9-6.9c18.8-22.1,34.6-55.8,40.7-86.7,3-15,3.3-41,.6-53.9a146.42,146.42,0,0,0-21.2-51c-6.6-9.9-25.9-29.2-36-35.8a141.61,141.61,0,0,0-49.6-20.7C153.05.9,127.25-.3,120.55.5Zm30.5,30.9a103.16,103.16,0,0,1,58.5,30.5c8.1,8.3,17.1,21.2,20.5,29.2l1.5,3.8h-194l1.5-3.8c5.5-13.2,21.4-32.2,34.6-41.5A104.88,104.88,0,0,1,151.05,31.4Zm88.5,101.9a149.86,149.86,0,0,1-4.1,32.8l-2.1,8.8H35.75l-2.1-9a138.78,138.78,0,0,1-4.1-32.3v-8.7h210ZM218,209.6c-9.9,17.2-28.4,37.7-42.2,46.8-34.5,22.6-70.6,16.2-103.2-18.1a155.25,155.25,0,0,1-21.4-28.7l-2.8-4.7h172.3ZM88.65,288.2c30.3,15.4,62.3,15.4,92.4-.2,3.9-2,7.3-3.7,7.8-3.9s.7,7.1.7,16.1c0,13.7-.3,16.8-1.6,18.1s-7.6,1.6-53.4,1.6-52-.2-53.4-1.6-1.6-4.4-1.6-18c0-9,.2-16.4.4-16.4S84.05,285.8,88.65,288.2Zm61.9,63.9c.1,1.3,1.6,26.1,3.4,55.2,3.5,56.3,3.5,58.1-.9,64.8-6.1,9.2-20,12.3-29.8,6.5a22.07,22.07,0,0,1-10.5-14.3c-.6-2.8.1-20.6,2.4-57,1.8-29.1,3.3-53.9,3.4-55.2,0-2.2.1-2.2,16-2.2S150.55,349.9,150.55,352.1Z"/><path class="cls-1" d="M363.55,1.5c-17.3,4.6-31.8,18.3-37.1,35.3-2.7,8.7-2.6,15.4,1.1,75.1,1.6,26.7,3,48.8,3,49.1s-2.9.9-6.4,1.1a34.68,34.68,0,0,0-28.8,19.6l-3.3,6.6-.5,33.1-.5,33-5.9,6.9c-18.8,22.2-34.5,55.6-40.8,86.7-2.9,14.9-3.2,40.9-.5,53.9,5.9,28.1,17.3,49.5,37.2,69.6s42.1,32.2,70.5,38.1c11.7,2.4,38,2.4,50.2,0,27-5.4,49.4-17.4,69.4-37.2,20.2-19.9,32.1-42.1,38.1-70.5,2.7-12.9,2.4-38.9-.6-53.9-6.1-31.2-22.5-65.6-41.5-87.6l-5.1-5.9-.5-33.1-.5-33.1-3.3-6.6A34.68,34.68,0,0,0,429,162.1a50.62,50.62,0,0,1-6.4-.6s1.5-25.1,3.4-55.6c3.5-55.9,3.5-60.5.5-69.9-5.3-16.7-21.6-31.4-38.7-35C380.55-.5,370.25-.3,363.55,1.5Zm24.6,31.9a22,22,0,0,1,10.2,14.1c.6,2.8-.1,20.6-2.4,57-1.8,29.1-3.3,53.9-3.4,55.1,0,2.3-.1,2.3-16,2.3-12.1,0-16-.3-16-1.3,0-.6-1.4-22.8-3-49.2-4-63.1-4-62.8-1.1-68.8C362.05,31,376.75,26.7,388.15,33.4ZM430,193.5c1.3,1.3,1.6,4.4,1.6,18.1,0,9-.3,16.3-.7,16.1s-5.2-2.5-10.6-5.1c-29-14.2-61.2-13.9-89.9,1-4,2.1-7.6,3.9-8,4.1s-.8-7.1-.8-16.1c0-13.7.3-16.8,1.6-18.1s7.6-1.6,53.4-1.6S428.55,192.1,430,193.5Zm-31.9,52.2c14,4.9,23.4,11.1,37,24.7,11.2,11.1,18.1,19.9,24.9,31.7l2.8,4.8H290.35l2.8-4.8c11.9-20.7,29.8-39.4,47.1-49.6,13.5-7.9,24.5-10.8,39-10.1C387.25,242.7,391.45,243.4,398.05,245.7Zm79.4,99.9a151.44,151.44,0,0,1,4.1,32.9v8.4h-210v-8.4a151.44,151.44,0,0,1,4.1-32.9l2.1-8.7h197.6Zm-4.9,73.9c-3.7,9.7-17.1,27.8-26.6,36-37.5,32.4-89.9,35-130.4,6.6-13.1-9.2-29-28.3-34.5-41.5l-1.5-3.7h194Z"/></svg>