<svg id="Capa_1" data-name="Capa 1" xmlns="http://www.w3.org/2000/svg" viewBox="0 0 440.88 511.48"><defs><style>.cls-1{fill:#fff;}</style></defs><path class="cls-1" d="M87.38,1.07c-33.6,6-61.6,26.9-76.3,57.1-22.6,46.2-9.9,99.3,31.5,130.7,14.2,10.8,35.4,18.8,54.2,20.3l8.7.7,113.8,99.8,113.8,99.7,14-13.9,14.1-13.9,22,22.3c15.2,15.3,22.7,23.7,24.3,26.9a35.48,35.48,0,0,1-6.5,39.9,34.18,34.18,0,0,1-32.3,10.1c-3.5-.7-19.2-8.5-46.4-23-51.3-27.2-57.5-30.3-71.2-35.6-18.1-6.9-32.1-10.7-53-14.2-16.9-2.8-59.3-2.5-76.5.4-23.5,4.1-43.5,10.1-63.6,19.2-12.2,5.5-49.4,25.3-49.4,26.3s13,25.8,13.6,25.8c.2,0,6.2-3.1,13.3-7,34.3-18.5,49-24.7,71.5-30.5a223.22,223.22,0,0,1,124.1,4.7c15.7,5.2,25.9,10.1,75,36.3,22.5,11.9,42.8,22.6,45.1,23.5,8.2,3.6,19.1,5.3,28.8,4.7,17.2-1.2,29.8-6.9,41.7-18.7,12.8-12.8,19.3-28.7,19.2-47.5-.1-12.2-3.1-22.8-9.4-32.6-2.5-3.9-12.9-15.2-26.7-29.2l-22.7-22.7,13.9-13.9,13.8-13.8-100.1-114.3-100.1-114.2v-5.3a91.86,91.86,0,0,0-1.5-13.2,105.17,105.17,0,0,0-77.3-82.9C118.68,0,99-.93,87.38,1.07Zm36.7,31.1c7.1,1.9,19,7.2,20.7,9.2.9,1.2-8.2,10.8-50.3,52.9-28.3,28.3-51.7,51.4-52.1,51.4-1.4,0-8.7-16.6-10.4-23.5-2.4-10-2.2-26.7.5-36.8,6.4-24.1,25.7-44.3,49.9-52.2a85.9,85.9,0,0,1,10-2.5C99.18,29.37,117.08,30.27,124.08,32.17Zm48.3,40.3c3.9,8.3,7.2,20.9,7.2,27.1v4.6l-37.7,37.7c-29.7,29.7-38.3,37.8-40.3,37.8-6.5,0-21.6-4.1-29.7-8l-8.6-4.2,51.9-51.9c36.2-36.2,52.1-51.5,53-50.9A48.35,48.35,0,0,1,172.38,72.47Zm41.6,82.4,19.5,22.3L205.78,205c-15.2,15.2-28,27.6-28.4,27.5-.8-.3-22.1-18.7-36.1-31.2l-8.9-7.9,30.3-30.3c16.7-16.7,30.7-30.4,31.1-30.4S203.18,142.67,214,154.87Zm97.7,111.6,57.2,65.4-18.4,18.3-18.4,18.3-65.8-57.6-65.7-57.6,26.2-26.3c14.5-14.5,26.6-26.2,27-26.1S280.18,230.57,311.68,266.47Z"/></svg>