<svg id="Capa_1" data-name="Capa 1" xmlns="http://www.w3.org/2000/svg" viewBox="0 0 489.84 521.87"><defs><style>.cls-1{fill:#fff;stroke:#fff;stroke-miterlimit:10;stroke-width:10px;}</style></defs><path class="cls-1" d="M162.6,6.54c-8.6,1.9-16.8,5.6-26.9,12.2-8.9,5.8-17.6,9-26.8,9.8-5.7.5-7.7.1-18.4-3.5-11.5-4-12.3-4.1-25-4.1-11.5,0-15.8.5-35,4.4C12.2,29,8.3,30.14,6.8,32S5,36.24,5,49s.3,15.1,1.8,17,5.4,2.9,23.7,6.6C49.7,76.44,54,77,65.5,77c12.6,0,13.5-.1,25-4l11.9-4H127c26.9,0,32.8-.6,46.5-5,10.9-3.5,12.6-3.6,18.1-1a13.33,13.33,0,0,1,6.3,6.3c1.7,3.4,6.8,36.7,27.6,182.7,14.1,98.2,26,181,26.6,184,7,37.5,35.9,68.2,72.8,77.7a99,99,0,0,0,112.6-50c7.9-14.9,8.8-19.4,19.9-97.3,5.7-39.7,10.7-72.7,11-73.2a7,7,0,0,1,3.7-1.7c4.4-1,10.6-7.5,12-12.7a20.69,20.69,0,0,0-8.8-22.9l-3.8-2.4H346.4l-4.1,2.7a20.36,20.36,0,0,0-8.4,22.6c1.5,5.2,7.3,11.4,12.1,12.8,2.9.8,3.6,1.5,3.8,3.9,2.6,25.4,5.6,68.9,5,71.3-1.6,6.1-8.5,8.1-13.4,3.9-2.6-2.2-3.2-5-13-54.8-5.7-28.8-10.3-53.3-10.4-54.5s1.1-2.6,2.6-3.5c4-2.1,9.9-9.3,11.2-13.7,2.6-8.6.8-16.2-5.5-23.2-4.3-4.8-10.7-8-15.9-8-1.6,0-2.3-.8-2.8-3.1-1-5-.8-5.4,3.4-7.3,7.7-3.4,14-13.1,14-21.6,0-12.6-11.4-24-24.1-24-3.3,0-3.7-.3-4.3-3.1-.9-4.7-.9-4.7,3.7-6.1,5.6-1.6,13.8-9.8,15.5-15.4,4.8-16.3-7.7-32.3-24.5-31.3l-4.8.3L283.2,85c-5.2-26.1-11.1-37.9-26.7-53.5-14.3-14.3-28.2-21.7-47-25C198.1,4.44,172.1,4.54,162.6,6.54ZM214.5,24c23,7.4,39.9,23.1,48,44.5,3.2,8.5,9.8,41.9,9,45.6-.7,2.9-.7,2.9-7.4,2.9h-6.8L255,103.14c-2.7-15.3-4.3-18.2-10-18.2-3.6,0-8,3.8-8,6.9,0,4.3,40.1,226.8,41.3,229.1,2.7,5.2,10.7,5.1,13.6-.1,1.3-2.4.9-5.7-4.8-38-3.4-19.5-6.4-36-6.6-36.7s.7-1.2,3-1.2c2.5,0,3.5.4,3.5,1.6,0,1.9,10.4,12.4,12.3,12.4s.7-5,13.2,59c11.5,58.6,11.9,60.1,19,65.6a24.81,24.81,0,0,0,22.7,4.2c5.4-1.6,13.2-8.8,15.3-14,2.2-5.6,2.1-10.9-1-46.8-1.4-16.2-2.5-30.5-2.5-31.7V293h86l-.5,2.3c-.2,1.2-4.8,32.6-10,69.7s-10.5,70.8-11.6,74.9c-10.8,40-52,66.6-92.9,60-31.8-5.1-58.5-28.5-67.4-59.2-.9-3.1-13.5-88.4-28.1-189.6C212.3,47.84,214.8,61.54,206,53.54a31.56,31.56,0,0,0-19.4-8.3c-5.1-.4-8,.1-17.6,3.3l-11.5,3.8-24.2.4-24.3.4v-4c0-4.2,1.2-5.1,7-5.2,4.9-.1,19.3-5.9,28-11.4,17-10.8,20.1-11.6,45-11.2C204.9,21.64,208.5,22,214.5,24ZM84,39.74l8.5,2.9v12.6L84,58.14c-12,4-22.9,3.9-45.7-.4L21,54.54V43.44l15.3-3.2C57.7,36,72.1,35.74,84,39.74Zm214.5,79.7A7.3,7.3,0,1,1,293,117,7.8,7.8,0,0,1,298.5,119.44ZM271,134.24c0,.7,1.7,3.3,3.8,5.7,3.2,3.8,4,5.6,5.8,14.9,2.1,10.3,2.1,10.7.3,13.3a9.14,9.14,0,0,0-1.9,3.7c0,.7-2.3,1.1-5.8,1.1h-5.9l-2.2-13.3c-1.3-7.2-2.9-16.2-3.6-20l-1.3-6.7h5.4C269.4,133,271,133.34,271,134.24Zm35.5,41.2A7.3,7.3,0,1,1,301,173,7.8,7.8,0,0,1,306.5,175.44ZM279,190.54c0,.8,2.5,4,5.5,7.1,5.3,5.2,5.7,5.9,7.1,13.4l1.5,8-3.1,3.7c-1.6,2-3,4.2-3,4.9,0,.9-1.6,1.3-4.8,1.3h-4.9l-2.2-13.3c-1.3-7.2-2.9-16.2-3.6-20l-1.3-6.7h4.4C277.9,189,279,189.34,279,190.54Zm35.5,40.9A7.3,7.3,0,1,1,309,229a7.8,7.8,0,0,1,5.5,2.45Zm153.9,39.7a2.85,2.85,0,0,1,0,3.5c-1,1.7-5.1,1.8-58.9,2.1-59.6.2-60.5.2-60.5-3.7,0-4.1.1-4.1,60.3-3.9,54,.3,58.1.4,59.1,2Z"/><path class="cls-1" d="M423.7,303.24c-2.1,2-2.8,5.6-6.7,32.9-4.1,29.1-4.2,30.8-2.6,33.2,2.9,4.5,10.2,4.7,13,.3,1.2-1.8,9.6-56.3,9.6-62,0-1-1.1-2.9-2.5-4.2a7.37,7.37,0,0,0-10.39-.59Z"/></svg>