<svg id="Capa_1" data-name="Capa 1" xmlns="http://www.w3.org/2000/svg" viewBox="0 0 513.13 321.15"><defs><style>.cls-1{fill:#fff;}</style></defs><path class="cls-1" d="M81.49.25l4.69,0q6.41,0,12.8,0l13.85,0q13.55,0,27.09,0h31.59q29.91,0,59.81,0Q258.64.15,286,.09q28.1,0,56.19,0,15.75,0,31.5,0Q387,0,400.47,0c4.55,0,9.11,0,13.66,0,30.47-.13,56.38,2.5,79.44,24.5C506.33,37.91,513,56.71,512.89,75c0,.89,0,1.77,0,2.69q0,4.41,0,8.82,0,3.18,0,6.36,0,8.59,0,17.21c0,3.59,0,7.18,0,10.77q0,18.79,0,37.6,0,17.49,0,35,0,15,0,30.1,0,9,0,18,0,8.44,0,16.89c0,2.06,0,4.12,0,6.17.09,17.06-2.18,31.25-14.13,44.34a44.94,44.94,0,0,1-31,12H438.05l-16,0q-15.68,0-31.35,0l-25.47,0L293,321h-7.88q-31.59,0-63.19.05-32.43,0-64.88,0-18.21,0-36.43,0-15.51,0-31,0H73.78q-7.26,0-14.5,0H54.05c-16,.1-29.54-3.06-41.67-14.13C4,298.17.32,286.69.35,274.73v-2.65c0-2.92,0-5.84,0-8.76q0-3.15,0-6.3,0-8.53,0-17.08c0-3.56,0-7.13,0-10.69q0-18.69,0-37.38,0-17.35-.07-34.73-.06-14.94,0-29.89c0-5.93,0-11.87,0-17.81q0-8.4,0-16.8,0-3.06,0-6.12C-.18,62.27,5.51,39.63,22.63,21.64,38.51,5.61,59.54.16,81.49.25ZM44.38,47.18c-5.88,8.19-5.88,8.19-8.75,17.46h442a36.67,36.67,0,0,0-14-22C448.88,34,435.19,32.49,418.29,32.51H389.22l-25.14,0H343.63q-29,0-58,0h-6.32l-50.69,0-52.11,0H91.86C74.52,32.44,56.88,33.52,44.38,47.18ZM32.63,96.64q-.08,34.19-.11,68.38,0,15.87,0,31.75,0,13.83,0,27.67,0,7.34,0,14.65,0,6.91,0,13.81c0,1.68,0,3.37,0,5-.73,14.26-.73,14.26,4.86,26.63,16,9.8,47.7,4.06,59.38,4.06v-96h-16v-96Zm112,0v96h-16v96h64v-96h-16v-96Zm96,0v96h-16v96h64v-96h-16v-96Zm96,0v96h-16v96h64v-192Zm80,0v192c27.83,3.77,27.83,3.77,61-6,3.4-5.11,3.12-11.48,3.12-17.4V263q0-3.62,0-7.24v-5.2q0-7,0-14.11,0-7.37,0-14.75,0-14,0-27.92,0-15.9,0-31.79,0-32.7-.05-65.39Z"/></svg>